# Blender 4.0.2
# www.blender.org
mtllib hoop.mtl
o Cube
v -0.108082 -0.902052 0.902052
v -0.108082 0.902052 0.902052
v -0.108082 -0.902052 -0.902052
v -0.108082 0.902052 -0.902052
v 0.108082 -0.902052 0.902052
v 0.108082 0.902052 0.902052
v 0.108082 -0.902052 -0.902052
v 0.108082 0.902052 -0.902052
v -0.108082 -1.000000 -1.000000
v -0.108082 -1.000000 1.000000
v -0.108082 1.000000 1.000000
v -0.108082 1.000000 -1.000000
v 0.108082 1.000000 -1.000000
v 0.108082 -1.000000 -1.000000
v 0.108082 -1.000000 1.000000
v 0.108082 1.000000 1.000000
vn -0.0000 -1.0000 -0.0000
vn -0.0000 -0.0000 -1.0000
vn -0.0000 -0.0000 1.0000
vn -0.0000 1.0000 -0.0000
vn -1.0000 -0.0000 -0.0000
vn 1.0000 -0.0000 -0.0000
vt 0.666667 0.000000
vt 1.000000 0.300684
vt 0.666667 0.300684
vt 0.000000 0.000000
vt 0.333333 0.333333
vt 0.000000 0.333333
vt 1.000000 0.300684
vt 0.666667 0.601368
vt 0.666667 0.300684
vt 0.333333 0.666667
vt 0.000000 0.666667
vt 0.666667 0.333333
vt 0.333333 0.000000
vt 0.666667 -0.000000
vt 0.666667 0.666667
vt 0.333333 0.333333
vt 0.317009 0.983675
vt 0.000000 1.000000
vt 0.016325 0.983675
vt 0.016325 0.682991
vt 0.317009 0.682991
vt 0.333333 1.000000
vt 0.349658 0.983675
vt 0.349658 0.682991
vt 0.650342 0.983675
vt 0.650342 0.682991
vt 0.666667 1.000000
vt 1.000000 0.902052
vt 0.666667 0.601368
vt 1.000000 0.601368
vt 1.000000 0.000000
vt 0.333333 0.000000
vt 1.000000 0.601368
vt 0.666667 0.902052
s 0
f 4/1/1 6/2/1 2/3/1
f 12/4/2 14/5/2 9/6/2
f 7/7/3 4/8/3 3/9/3
f 16/6/3 10/10/3 15/11/3
f 14/12/1 10/13/1 9/14/1
f 12/15/4 16/16/4 13/12/4
f 3/17/5 10/18/5 1/19/5
f 1/19/5 11/11/5 2/20/5
f 2/20/5 12/10/5 4/21/5
f 4/21/5 9/22/5 3/17/5
f 7/23/6 13/10/6 8/24/6
f 5/25/6 14/22/6 7/23/6
f 8/24/6 16/15/6 6/26/6
f 6/26/6 15/27/6 5/25/6
f 1/28/4 7/29/4 3/30/4
f 4/1/1 8/31/1 6/2/1
f 12/4/2 13/32/2 14/5/2
f 7/7/3 8/33/3 4/8/3
f 16/6/3 11/5/3 10/10/3
f 14/12/1 15/5/1 10/13/1
f 12/15/4 11/10/4 16/16/4
f 3/17/5 9/22/5 10/18/5
f 1/19/5 10/18/5 11/11/5
f 2/20/5 11/11/5 12/10/5
f 4/21/5 12/10/5 9/22/5
f 7/23/6 14/22/6 13/10/6
f 5/25/6 15/27/6 14/22/6
f 8/24/6 13/10/6 16/15/6
f 6/26/6 16/15/6 15/27/6
f 2/3/2 6/26/2 5/34/2
f 1/28/4 5/34/4 7/29/4
f 2/3/2 5/34/2 1/28/2
