# Blender 4.0.2
# www.blender.org
mtllib SpawnIndicator.mtl
o Cube
v 0.308114 0.308114 -3.043333
v 0.308114 -0.308114 -3.043333
v 1.000000 1.000000 5.926744
v 1.000000 -1.000000 5.926744
v -0.308114 0.308114 -3.043333
v -0.308114 -0.308114 -3.043333
v -1.000000 1.000000 5.926744
v -1.000000 -1.000000 5.926744
v 0.399924 -0.399924 -3.043333
v -0.399924 -0.399924 -3.043333
v 0.399924 0.399924 -3.043333
v -0.399924 0.399924 -3.043333
v 1.523725 -1.523725 -3.367907
v -1.523725 -1.523725 -3.367907
v 1.523725 1.523725 -3.367907
v -1.523725 1.523725 -3.367907
v 0.017093 -0.017093 -6.686007
v -0.017093 -0.017093 -6.686007
v 0.017093 0.017093 -6.686007
v -0.017093 0.017093 -6.686007
v -0.000000 -10.993198 0.000000
v 7.954758 -4.916373 5.779402
v -3.038388 -4.916377 9.351356
v -9.832605 -4.916330 0.000000
v -3.038388 -4.916377 -9.351356
v 7.954758 -4.916373 -5.779402
v 3.038388 4.916377 9.351356
v -7.954758 4.916373 5.779402
v -7.954758 4.916373 -5.779402
v 3.038388 4.916377 -9.351356
v 9.832605 4.916330 0.000000
v -0.000000 10.993198 0.000000
v -1.785906 -9.351414 5.496548
v 4.675657 -9.351410 3.397024
v 2.889769 -5.779539 8.893625
v 9.351341 -5.779520 0.000000
v 4.675657 -9.351410 -3.397024
v -5.779452 -9.351383 0.000000
v -7.565403 -5.779522 5.496565
v -1.785906 -9.351414 -5.496548
v -7.565403 -5.779522 -5.496565
v 2.889769 -5.779539 -8.893625
v 10.455169 -0.000000 3.397037
v 10.455169 -0.000000 -3.397037
v -0.000000 -0.000000 10.993198
v 6.461644 -0.000000 8.893682
v -10.455169 -0.000000 3.397037
v -6.461644 -0.000000 8.893682
v -6.461644 -0.000000 -8.893682
v -10.455169 -0.000000 -3.397037
v 6.461644 -0.000000 -8.893682
v -0.000000 -0.000000 -10.993198
v 7.565403 5.779522 5.496565
v -2.889769 5.779539 8.893625
v -9.351341 5.779520 0.000000
v -2.889769 5.779539 -8.893625
v 7.565403 5.779522 -5.496565
v 1.785906 9.351414 5.496548
v 5.779452 9.351383 0.000000
v -4.675657 9.351410 3.397024
v -4.675657 9.351410 -3.397024
v 1.785906 9.351414 -5.496548
vn -0.0000 0.9978 -0.0667
vn -0.0000 -0.0000 1.0000
vn -0.9978 -0.0000 -0.0667
vn -0.0000 -0.9978 -0.0667
vn 0.9978 -0.0000 -0.0667
vn -0.0000 -0.2580 0.9662
vn -0.0000 -0.0000 -1.0000
vn -0.0000 0.9105 -0.4134
vn -0.0000 0.2580 0.9662
vn 0.2580 -0.0000 0.9662
vn -0.2580 -0.0000 0.9662
vn 0.9105 -0.0000 -0.4134
vn -0.9105 -0.0000 -0.4134
vn -0.0000 -0.9105 -0.4134
vn 0.1024 -0.9435 0.3151
vn 0.7002 -0.6617 0.2680
vn -0.2680 -0.9435 0.1947
vn -0.2680 -0.9435 -0.1947
vn 0.1024 -0.9435 -0.3151
vn 0.9050 -0.3304 0.2680
vn 0.0247 -0.3304 0.9435
vn -0.8897 -0.3304 0.3151
vn -0.5746 -0.3304 -0.7488
vn 0.5346 -0.3304 -0.7779
vn 0.8026 -0.1256 0.5831
vn -0.3066 -0.1256 0.9435
vn -0.9921 -0.1256 -0.0000
vn -0.3066 -0.1256 -0.9435
vn 0.8026 -0.1256 -0.5831
vn 0.4089 0.6617 0.6284
vn -0.4713 0.6617 0.5831
vn -0.7002 0.6617 -0.2680
vn 0.0385 0.6617 -0.7488
vn 0.7240 0.6617 -0.1947
vn 0.2680 0.9435 -0.1947
vn 0.4911 0.7947 -0.3568
vn 0.4089 0.6617 -0.6284
vn -0.1024 0.9435 -0.3151
vn -0.1876 0.7947 -0.5773
vn -0.4713 0.6617 -0.5831
vn -0.3313 0.9435 -0.0000
vn -0.6071 0.7947 -0.0000
vn -0.7002 0.6617 0.2680
vn -0.1024 0.9435 0.3151
vn -0.1876 0.7947 0.5773
vn 0.0385 0.6617 0.7488
vn 0.2680 0.9435 0.1947
vn 0.4911 0.7947 0.3568
vn 0.7240 0.6617 0.1947
vn 0.8897 0.3304 -0.3151
vn 0.7947 0.1876 -0.5773
vn 0.5746 0.3304 -0.7488
vn -0.0247 0.3304 -0.9435
vn -0.3035 0.1876 -0.9342
vn -0.5346 0.3304 -0.7779
vn -0.9050 0.3304 -0.2680
vn -0.9822 0.1876 -0.0000
vn -0.9050 0.3304 0.2680
vn -0.5346 0.3304 0.7779
vn -0.3035 0.1876 0.9342
vn -0.0247 0.3304 0.9435
vn 0.5746 0.3304 0.7488
vn 0.7947 0.1876 0.5773
vn 0.8897 0.3304 0.3151
vn 0.3066 0.1256 -0.9435
vn 0.3035 -0.1876 -0.9342
vn 0.0247 -0.3304 -0.9435
vn -0.8026 0.1256 -0.5831
vn -0.7947 -0.1876 -0.5773
vn -0.8897 -0.3304 -0.3151
vn -0.8026 0.1256 0.5831
vn -0.7947 -0.1876 0.5773
vn -0.5746 -0.3304 0.7488
vn 0.3066 0.1256 0.9435
vn 0.3035 -0.1876 0.9342
vn 0.5346 -0.3304 0.7779
vn 0.9921 0.1256 -0.0000
vn 0.9822 -0.1876 -0.0000
vn 0.9050 -0.3304 -0.2680
vn 0.4713 -0.6617 -0.5831
vn 0.1876 -0.7947 -0.5773
vn -0.0385 -0.6617 -0.7488
vn -0.4089 -0.6617 -0.6284
vn -0.4911 -0.7947 -0.3568
vn -0.7240 -0.6617 -0.1947
vn -0.7240 -0.6617 0.1947
vn -0.4911 -0.7947 0.3568
vn -0.4089 -0.6617 0.6284
vn 0.7002 -0.6617 -0.2680
vn 0.6071 -0.7947 -0.0000
vn 0.3313 -0.9435 -0.0000
vn -0.0385 -0.6617 0.7488
vn 0.1876 -0.7947 0.5773
vn 0.4713 -0.6617 0.5831
vt 0.875000 0.500000
vt 0.625000 0.750000
vt 0.625000 0.500000
vt 0.375000 1.000000
vt 0.375000 0.750000
vt 0.625000 0.000000
vt 0.375000 0.250000
vt 0.375000 0.000000
vt 0.375000 0.500000
vt 0.125000 0.750000
vt 0.125000 0.500000
vt 0.403696 0.278696
vt 0.403696 0.471304
vt 0.596304 0.471304
vt 0.625000 0.250000
vt 0.596304 0.278696
vt 0.181819 0.000000
vt 0.227273 0.078731
vt 0.136365 0.078731
vt 0.272728 0.157461
vt 0.318182 0.078731
vt 0.363637 0.157461
vt 0.909091 0.000000
vt 0.954545 0.078731
vt 0.863636 0.078731
vt 0.727273 0.000000
vt 0.772727 0.078731
vt 0.681818 0.078731
vt 0.545455 0.000000
vt 0.590909 0.078731
vt 0.500000 0.078731
vt 0.318182 0.236191
vt 0.090910 0.157461
vt 0.181819 0.157461
vt 0.136365 0.236191
vt 0.818182 0.157461
vt 0.909091 0.157461
vt 0.863636 0.236191
vt 0.636364 0.157461
vt 0.727273 0.157461
vt 0.681818 0.236191
vt 0.454546 0.157461
vt 0.545455 0.157461
vt 0.500000 0.236191
vt 0.227273 0.236191
vt 0.045455 0.236191
vt 0.772727 0.236191
vt 0.590909 0.236191
vt 0.409092 0.236191
vt 0.181819 0.314921
vt 0.272728 0.314921
vt 0.227273 0.393651
vt 0.000000 0.314921
vt 0.090910 0.314921
vt 0.045455 0.393651
vt 0.727273 0.314921
vt 0.818182 0.314921
vt 0.772727 0.393651
vt 0.545455 0.314921
vt 0.636364 0.314921
vt 0.590909 0.393651
vt 0.363637 0.314921
vt 0.454546 0.314921
vt 0.409092 0.393651
vt 0.500000 0.393651
vt 0.454546 0.472382
vt 0.681818 0.393651
vt 0.636364 0.472382
vt 0.863636 0.393651
vt 0.818182 0.472382
vt 0.909091 0.314921
vt 0.136365 0.393651
vt 0.090910 0.472382
vt 0.318182 0.393651
vt 0.272728 0.472382
vt 0.954545 0.236191
vt 1.000000 0.157461
vt 0.409092 0.078731
vt 0.363637 0.000000
vt 0.875000 0.750000
vt 0.625000 1.000000
s 0
usemtl Material
f 12/1/1 3/2/1 11/3/1
f 3/2/2 8/4/2 4/5/2
f 7/6/3 10/7/3 8/8/3
f 9/9/4 8/10/4 10/11/4
f 9/9/5 3/2/5 4/5/5
f 6/12/6 13/13/6 2/13/6
f 2/13/7 10/7/7 6/12/7
f 1/14/7 9/9/7 2/13/7
f 6/12/7 12/15/7 5/16/7
f 5/16/7 11/3/7 1/14/7
f 15/14/8 20/16/8 16/16/8
f 1/14/9 16/16/9 5/16/9
f 2/13/10 15/14/10 1/14/10
f 5/16/11 14/12/11 6/12/11
f 20/16/7 17/13/7 18/12/7
f 13/13/12 19/14/12 15/14/12
f 16/16/13 18/12/13 14/12/13
f 14/12/14 17/13/14 13/13/14
f 21/17/15 34/18/15 33/19/15
f 22/20/16 34/21/16 36/22/16
f 21/23/17 33/24/17 38/25/17
f 21/26/18 38/27/18 40/28/18
f 21/29/19 40/30/19 37/31/19
f 22/20/20 36/22/20 43/32/20
f 23/33/21 35/34/21 45/35/21
f 24/36/22 39/37/22 47/38/22
f 25/39/23 41/40/23 49/41/23
f 26/42/24 42/43/24 51/44/24
f 22/20/25 43/32/25 46/45/25
f 23/33/26 45/35/26 48/46/26
f 24/36/27 47/38/27 50/47/27
f 25/39/28 49/41/28 52/48/28
f 26/42/29 51/44/29 44/49/29
f 27/50/30 53/51/30 58/52/30
f 28/53/31 54/54/31 60/55/31
f 29/56/32 55/57/32 61/58/32
f 30/59/33 56/60/33 62/61/33
f 31/62/34 57/63/34 59/64/34
f 59/64/35 62/65/35 32/66/35
f 59/64/36 57/63/36 62/65/36
f 57/63/37 30/59/37 62/65/37
f 62/61/38 61/67/38 32/68/38
f 62/61/39 56/60/39 61/67/39
f 56/60/40 29/56/40 61/67/40
f 61/58/41 60/69/41 32/70/41
f 61/58/42 55/57/42 60/69/42
f 55/57/43 28/71/43 60/69/43
f 60/55/44 58/72/44 32/73/44
f 60/55/45 54/54/45 58/72/45
f 54/54/46 27/50/46 58/72/46
f 58/52/47 59/74/47 32/75/47
f 58/52/48 53/51/48 59/74/48
f 53/51/49 31/62/49 59/74/49
f 44/49/50 57/63/50 31/62/50
f 44/49/51 51/44/51 57/63/51
f 51/44/52 30/59/52 57/63/52
f 52/48/53 56/60/53 30/59/53
f 52/48/54 49/41/54 56/60/54
f 49/41/55 29/56/55 56/60/55
f 50/47/56 55/57/56 29/56/56
f 50/47/57 47/38/57 55/57/57
f 47/38/58 28/71/58 55/57/58
f 48/46/59 54/54/59 28/53/59
f 48/46/60 45/35/60 54/54/60
f 45/35/61 27/50/61 54/54/61
f 46/45/62 53/51/62 27/50/62
f 46/45/63 43/32/63 53/51/63
f 43/32/64 31/62/64 53/51/64
f 51/44/65 52/48/65 30/59/65
f 51/44/66 42/43/66 52/48/66
f 42/43/67 25/39/67 52/48/67
f 49/41/68 50/47/68 29/56/68
f 49/41/69 41/40/69 50/47/69
f 41/40/70 24/36/70 50/47/70
f 47/38/71 48/76/71 28/71/71
f 47/38/72 39/37/72 48/76/72
f 39/37/73 23/77/73 48/76/73
f 45/35/74 46/45/74 27/50/74
f 45/35/75 35/34/75 46/45/75
f 35/34/76 22/20/76 46/45/76
f 43/32/77 44/49/77 31/62/77
f 43/32/78 36/22/78 44/49/78
f 36/22/79 26/42/79 44/49/79
f 37/31/80 42/43/80 26/42/80
f 37/31/81 40/30/81 42/43/81
f 40/30/82 25/39/82 42/43/82
f 40/28/83 41/40/83 25/39/83
f 40/28/84 38/27/84 41/40/84
f 38/27/85 24/36/85 41/40/85
f 38/25/86 39/37/86 24/36/86
f 38/25/87 33/24/87 39/37/87
f 33/24/88 23/77/88 39/37/88
f 36/22/89 37/78/89 26/42/89
f 36/22/90 34/21/90 37/78/90
f 34/21/91 21/79/91 37/78/91
f 33/19/92 35/34/92 23/33/92
f 33/19/93 34/18/93 35/34/93
f 34/18/94 22/20/94 35/34/94
f 12/1/1 7/80/1 3/2/1
f 3/2/2 7/81/2 8/4/2
f 7/6/3 12/15/3 10/7/3
f 9/9/4 4/5/4 8/10/4
f 9/9/5 11/3/5 3/2/5
f 6/12/6 14/12/6 13/13/6
f 2/13/7 9/9/7 10/7/7
f 1/14/7 11/3/7 9/9/7
f 6/12/7 10/7/7 12/15/7
f 5/16/7 12/15/7 11/3/7
f 15/14/8 19/14/8 20/16/8
f 1/14/9 15/14/9 16/16/9
f 2/13/10 13/13/10 15/14/10
f 5/16/11 16/16/11 14/12/11
f 20/16/7 19/14/7 17/13/7
f 13/13/12 17/13/12 19/14/12
f 16/16/13 20/16/13 18/12/13
f 14/12/14 18/12/14 17/13/14
